<?xml version="1.0" encoding="utf-8"?>
<!-- Generator: Adobe Illustrator 18.0.0, SVG Export Plug-In . SVG Version: 6.00 Build 0)  -->
<!DOCTYPE svg PUBLIC "-//W3C//DTD SVG 1.1//EN" "http://www.w3.org/Graphics/SVG/1.1/DTD/svg11.dtd">
<svg version="1.1" id="Camada_1" xmlns="http://www.w3.org/2000/svg" xmlns:xlink="http://www.w3.org/1999/xlink" x="0px" y="0px"
	 viewBox="0 0 133.3 25.5" enable-background="new 0 0 133.3 25.5" xml:space="preserve">
<g>
	<g>
		<path fill="#195C3D" d="M0,8.5c0,0,1.9-2.3,6.2-3.1c4.3-0.8,4.7,0,7.8-1.1C17,3.2,18.2,0,18.2,0l8.6,1.6c0,0-1.2,2.3-6.5,3.2
			c-5.2,0.9-6.2,0.6-8.7,2.3c-2.5,1.7-3.3,4.1-3.3,4.1L0,8.5z"/>
		<path fill="#195C3D" d="M0,22.8c0,0,1.9-2.3,6.2-3.1c4.3-0.8,4.7,0,7.8-1.1c3.1-1.1,4.2-4.3,4.2-4.3l8.6,1.6c0,0-1.2,2.3-6.5,3.2
			c-5.2,0.9-6.2,0.6-8.7,2.3c-2.5,1.7-3.3,4.1-3.3,4.1L0,22.8z"/>
		<path fill="#CD7C2B" d="M0,15.5c0,0,1.9-2.3,6.2-3.1c4.3-0.8,4.7,0,7.8-1.1C17,10.2,18.2,7,18.2,7l8.6,1.6c0,0-1.2,2.3-6.5,3.2
			c-5.2,0.9-6.2,0.6-8.7,2.3c-2.5,1.7-3.3,4.1-3.3,4.1L0,15.5z"/>
	</g>
	<g>
		<path fill="#2A3B8F" d="M38.8,16.5c-0.8,0.1-1.9,0.3-4.2,0.3c-2.8,0-5.3-0.7-5.3-4.7V4.9c0-4,2.5-4.7,5.3-4.7
			c2.3,0,3.4,0.2,4.2,0.3c0.3,0,0.4,0.2,0.4,0.4v2c0,0.2-0.2,0.4-0.4,0.4h-4.4c-1,0-1.4,0.4-1.4,1.5v2h5.6c0.2,0,0.4,0.2,0.4,0.4
			v2.1c0,0.2-0.2,0.4-0.4,0.4H33v2.3c0,1.1,0.4,1.5,1.4,1.5h4.4c0.2,0,0.4,0.2,0.4,0.4v2C39.3,16.4,39.1,16.5,38.8,16.5z"/>
		<path fill="#2A3B8F" d="M55.8,16.6h-2.9c-0.2,0-0.3-0.2-0.3-0.4V7.1c0-0.2-0.1-0.2-0.1-0.2c-0.1,0-0.1,0-0.2,0.2l-2,3.6
			c-0.2,0.3-0.4,0.4-0.7,0.4h-1.7c-0.3,0-0.5-0.1-0.7-0.4l-2-3.6c-0.1-0.1-0.1-0.2-0.2-0.2c0,0-0.1,0-0.1,0.2v9.1
			c0,0.2-0.2,0.4-0.3,0.4h-2.9c-0.2,0-0.4-0.1-0.4-0.3V1.2c0-0.5,0.3-0.7,0.8-0.7h2c0.5,0,0.8,0.2,1,0.6l3.3,6.2
			c0.1,0.2,0.2,0.3,0.2,0.3c0.1,0,0.2-0.1,0.2-0.3L52.4,1c0.2-0.4,0.5-0.6,1-0.6h2c0.5,0,0.8,0.3,0.8,0.8v15.1
			C56.1,16.6,55.9,16.6,55.8,16.6z"/>
		<path fill="#2A3B8F" d="M64.1,11c-0.5,0-1.2,0-1.8-0.1v5.3c0,0.2-0.2,0.4-0.4,0.4h-2.8c-0.2,0-0.4-0.2-0.4-0.4V1.6
			c0-0.7,0.3-0.9,1-1c1.1-0.2,2.8-0.3,4.4-0.3c3.3,0,6.5,1.1,6.5,5.2v0.2C70.5,9.8,67.3,11,64.1,11z M66.8,5.5c0-1.5-1-2.2-2.8-2.2
			c-0.3,0-1.5,0-1.8,0.1v4.4c0.2,0,1.5,0,1.8,0c1.9,0,2.8-0.7,2.8-2.2V5.5z"/>
		<path fill="#2A3B8F" d="M84.1,16.6h-3.3c-0.2,0-0.3-0.2-0.4-0.4l-2.9-5.5l-0.2,0c-0.5,0-1.1,0-1.5,0v5.5c0,0.2-0.2,0.4-0.4,0.4
			h-2.8c-0.2,0-0.4-0.2-0.4-0.4V1.6c0-0.7,0.3-0.9,1-1c1-0.2,2.8-0.3,4.4-0.3c3.7,0,6.5,1.2,6.5,5.1v0.3c0,2.3-1.2,3.7-2.8,4.3
			l3.3,6.1c0,0.1,0.1,0.2,0.1,0.2C84.4,16.5,84.3,16.6,84.1,16.6z M80.2,5.4c0-1.3-1-1.9-2.8-1.9c-0.3,0-1.4,0-1.7,0.1v4.2
			c0.2,0,1.3,0,1.5,0c2.3,0,3-0.6,3-2.1V5.4z"/>
		<path fill="#2A3B8F" d="M95.4,16.5c-0.8,0.1-1.9,0.3-4.2,0.3c-2.8,0-5.3-0.7-5.3-4.7V4.9c0-4,2.5-4.7,5.3-4.7
			c2.3,0,3.4,0.2,4.2,0.3c0.3,0,0.4,0.2,0.4,0.4v2c0,0.2-0.2,0.4-0.4,0.4h-4.4c-1,0-1.4,0.4-1.4,1.5v2h5.6c0.2,0,0.4,0.2,0.4,0.4
			v2.1c0,0.2-0.2,0.4-0.4,0.4h-5.6v2.3c0,1.1,0.4,1.5,1.4,1.5h4.4c0.2,0,0.4,0.2,0.4,0.4v2C95.8,16.4,95.7,16.5,95.4,16.5z"/>
		<path fill="#2A3B8F" d="M102.4,16.8c-1.7,0-3-0.2-4.1-0.5c-0.2-0.1-0.4-0.2-0.4-0.4v-2.1c0-0.3,0.2-0.4,0.4-0.4c0,0,0,0,0.1,0
			c0.9,0.1,3.3,0.3,4.1,0.3c1.5,0,1.9-0.5,1.9-1.5c0-0.6-0.3-1-1.4-1.7l-3-1.8c-2-1.2-2.6-2.6-2.6-4.2c0-2.4,1.3-4.2,5.6-4.2
			c1.6,0,3.8,0.3,4.6,0.5c0.2,0,0.3,0.2,0.3,0.4v2.2c0,0.2-0.1,0.4-0.4,0.4c0,0,0,0,0,0c-0.6,0-3.1-0.2-4.6-0.2
			c-1.2,0-1.7,0.4-1.7,1.2c0,0.6,0.3,0.9,1.5,1.5l2.8,1.5c2.3,1.2,2.9,2.7,2.9,4.4C108.3,14.4,106.8,16.8,102.4,16.8z"/>
		<path fill="#2A3B8F" d="M120.2,3.5h-3.5v12.7c0,0.2-0.2,0.4-0.4,0.4h-2.8c-0.2,0-0.4-0.2-0.4-0.4V3.5h-3.5c-0.2,0-0.4-0.2-0.4-0.4
			V0.9c0-0.2,0.2-0.4,0.4-0.4h10.8c0.2,0,0.5,0.2,0.5,0.4v2.2C120.6,3.4,120.4,3.5,120.2,3.5z"/>
		<path fill="#2A3B8F" d="M132.9,16.6h-3c-0.2,0-0.4-0.2-0.4-0.4l-0.8-3.6h-4.5l-0.8,3.6c0,0.2-0.2,0.4-0.4,0.4h-3
			c-0.2,0-0.4-0.1-0.4-0.3c0,0,0-0.1,0-0.1l3.2-13.5c0.5-2.1,2.1-2.4,3.6-2.4c1.5,0,3.1,0.3,3.6,2.4l3.2,13.5c0,0,0,0.1,0,0.1
			C133.3,16.5,133.1,16.6,132.9,16.6z M126.7,3.7c0-0.2-0.1-0.3-0.3-0.3c-0.2,0-0.3,0.1-0.3,0.3l-1.3,6h3.2L126.7,3.7z"/>
	</g>
	<g>
		<path fill="#195C3D" d="M33.2,25.4c-0.2,0.1-0.7,0.1-1.3,0.1c-1.3,0-2.5-0.7-2.5-2.7v-1.1c0-2,1.2-2.7,2.5-2.7
			c0.6,0,1.1,0.1,1.3,0.1c0.1,0,0.2,0.1,0.2,0.2v0.8c0,0.1-0.1,0.2-0.2,0.2c0,0,0,0,0,0c-0.3,0-0.8-0.1-1.3-0.1
			c-0.6,0-1.1,0.3-1.1,1.5v1.1c0,1.1,0.5,1.5,1.1,1.5c0.5,0,0.9,0,1.3-0.1c0,0,0,0,0,0c0.1,0,0.2,0.1,0.2,0.2v0.8
			C33.4,25.3,33.3,25.3,33.2,25.4z"/>
		<path fill="#195C3D" d="M39.6,25.4h-1.2c-0.1,0-0.2-0.1-0.2-0.2L38,23.9h-1.8l-0.3,1.4c0,0.1-0.1,0.2-0.2,0.2h-1.2
			c-0.1,0-0.1-0.1-0.1-0.1c0,0,0,0,0,0l1.3-5.3c0.2-0.8,0.8-1,1.4-1c0.6,0,1.2,0.1,1.4,1l1.3,5.3c0,0,0,0,0,0
			C39.8,25.4,39.7,25.4,39.6,25.4z M37.2,20.3c0-0.1,0-0.1-0.1-0.1c-0.1,0-0.1,0-0.1,0.1l-0.5,2.4h1.3L37.2,20.3z"/>
		<path fill="#195C3D" d="M43.1,23.2c-0.2,0-0.5,0-0.7,0v2.1c0,0.1-0.1,0.2-0.2,0.2h-1.1c-0.1,0-0.2-0.1-0.2-0.2v-5.8
			c0-0.3,0.1-0.4,0.4-0.4c0.4-0.1,1.1-0.1,1.7-0.1c1.3,0,2.6,0.5,2.6,2.1v0.1C45.7,22.7,44.4,23.2,43.1,23.2z M44.2,21
			c0-0.6-0.4-0.9-1.1-0.9c-0.1,0-0.6,0-0.7,0V22c0.1,0,0.6,0,0.7,0C43.9,22,44.2,21.7,44.2,21L44.2,21z"/>
		<path fill="#195C3D" d="M48.3,25.4h-1.2c-0.1,0-0.2-0.1-0.2-0.2v-6.1c0-0.1,0.1-0.2,0.2-0.2h1.2c0.1,0,0.2,0.1,0.2,0.2v6.1
			C48.5,25.4,48.4,25.4,48.3,25.4z"/>
		<path fill="#195C3D" d="M54.2,20.2h-1.4v5c0,0.1-0.1,0.2-0.2,0.2h-1.1c-0.1,0-0.2-0.1-0.2-0.2v-5h-1.4c-0.1,0-0.2-0.1-0.2-0.2
			v-0.9c0-0.1,0.1-0.2,0.2-0.2h4.3c0.1,0,0.2,0.1,0.2,0.2v0.9C54.4,20.2,54.3,20.2,54.2,20.2z"/>
		<path fill="#195C3D" d="M60.5,25.4h-1.2c-0.1,0-0.2-0.1-0.2-0.2l-0.3-1.4H57l-0.3,1.4c0,0.1-0.1,0.2-0.2,0.2h-1.2
			c-0.1,0-0.1-0.1-0.1-0.1c0,0,0,0,0,0l1.3-5.3c0.2-0.8,0.8-1,1.4-1c0.6,0,1.2,0.1,1.4,1l1.3,5.3c0,0,0,0,0,0
			C60.6,25.4,60.5,25.4,60.5,25.4z M58,20.3c0-0.1,0-0.1-0.1-0.1c-0.1,0-0.1,0-0.1,0.1l-0.5,2.4h1.3L58,20.3z"/>
		<path fill="#195C3D" d="M65.3,25.4c-0.3,0.1-0.9,0.1-1.4,0.1c-1.1,0-2.1-0.3-2.1-1.8v-4.5c0-0.1,0.1-0.2,0.2-0.2h1.1
			c0.1,0,0.2,0.1,0.2,0.2v4.5c0,0.4,0.1,0.6,0.6,0.6h1.5c0.1,0,0.2,0.1,0.2,0.2v0.8C65.5,25.3,65.4,25.4,65.3,25.4z"/>
	</g>
</g>
<g>
</g>
<g>
</g>
<g>
</g>
<g>
</g>
<g>
</g>
<g>
</g>
</svg>
